<mxfile host="app.diagrams.net" agent="Mozilla/5.0 (Macintosh; Intel Mac OS X 10_15_7) AppleWebKit/605.1.15 (KHTML, like Gecko) Version/17.4 Safari/605.1.15" version="25.0.3">
  <diagram name="第 1 页" id="vBuKtMuwuAG4GYh2mONY">
    <mxGraphModel dx="984" dy="667" grid="0" gridSize="10" guides="1" tooltips="1" connect="1" arrows="1" fold="1" page="1" pageScale="1" pageWidth="827" pageHeight="1169" math="0" shadow="0">
      <root>
        <mxCell id="0" />
        <mxCell id="1" parent="0" />
        <mxCell id="yEMM8mUvpeSLS9EE-yN1-16" style="edgeStyle=orthogonalEdgeStyle;rounded=0;orthogonalLoop=1;jettySize=auto;html=1;exitX=0.5;exitY=1;exitDx=0;exitDy=0;entryX=0.5;entryY=0;entryDx=0;entryDy=0;" edge="1" parent="1" source="yEMM8mUvpeSLS9EE-yN1-1" target="yEMM8mUvpeSLS9EE-yN1-2">
          <mxGeometry relative="1" as="geometry" />
        </mxCell>
        <mxCell id="yEMM8mUvpeSLS9EE-yN1-1" value="&lt;font style=&quot;font-size: 16px;&quot;&gt;开始&lt;/font&gt;" style="ellipse;whiteSpace=wrap;html=1;" vertex="1" parent="1">
          <mxGeometry x="372.5" y="170" width="99" height="40" as="geometry" />
        </mxCell>
        <mxCell id="yEMM8mUvpeSLS9EE-yN1-15" style="edgeStyle=orthogonalEdgeStyle;rounded=0;orthogonalLoop=1;jettySize=auto;html=1;exitX=0.5;exitY=1;exitDx=0;exitDy=0;entryX=0.5;entryY=0;entryDx=0;entryDy=0;" edge="1" parent="1" source="yEMM8mUvpeSLS9EE-yN1-2" target="yEMM8mUvpeSLS9EE-yN1-4">
          <mxGeometry relative="1" as="geometry" />
        </mxCell>
        <mxCell id="yEMM8mUvpeSLS9EE-yN1-2" value="&lt;font style=&quot;font-size: 16px;&quot;&gt;读取两个大数&lt;/font&gt;" style="rounded=1;whiteSpace=wrap;html=1;" vertex="1" parent="1">
          <mxGeometry x="364" y="240" width="116" height="40" as="geometry" />
        </mxCell>
        <mxCell id="yEMM8mUvpeSLS9EE-yN1-8" value="否" style="edgeStyle=orthogonalEdgeStyle;rounded=0;orthogonalLoop=1;jettySize=auto;html=1;exitX=0.5;exitY=1;exitDx=0;exitDy=0;entryX=0.5;entryY=0;entryDx=0;entryDy=0;" edge="1" parent="1" source="yEMM8mUvpeSLS9EE-yN1-4" target="yEMM8mUvpeSLS9EE-yN1-6">
          <mxGeometry relative="1" as="geometry" />
        </mxCell>
        <mxCell id="yEMM8mUvpeSLS9EE-yN1-17" style="edgeStyle=orthogonalEdgeStyle;rounded=0;orthogonalLoop=1;jettySize=auto;html=1;exitX=1;exitY=0.5;exitDx=0;exitDy=0;entryX=1;entryY=0.5;entryDx=0;entryDy=0;" edge="1" parent="1" source="yEMM8mUvpeSLS9EE-yN1-4" target="yEMM8mUvpeSLS9EE-yN1-7">
          <mxGeometry relative="1" as="geometry" />
        </mxCell>
        <mxCell id="yEMM8mUvpeSLS9EE-yN1-18" value="是" style="edgeLabel;html=1;align=center;verticalAlign=middle;resizable=0;points=[];" vertex="1" connectable="0" parent="yEMM8mUvpeSLS9EE-yN1-17">
          <mxGeometry x="-0.1089" y="-1" relative="1" as="geometry">
            <mxPoint as="offset" />
          </mxGeometry>
        </mxCell>
        <mxCell id="yEMM8mUvpeSLS9EE-yN1-4" value="&lt;font style=&quot;font-size: 16px;&quot;&gt;判断&lt;span style=&quot;text-align: start;&quot;&gt;isPrime()&lt;/span&gt;&lt;/font&gt;" style="rhombus;whiteSpace=wrap;html=1;" vertex="1" parent="1">
          <mxGeometry x="342" y="310" width="160" height="50" as="geometry" />
        </mxCell>
        <mxCell id="yEMM8mUvpeSLS9EE-yN1-14" style="edgeStyle=orthogonalEdgeStyle;rounded=0;orthogonalLoop=1;jettySize=auto;html=1;exitX=0;exitY=0.5;exitDx=0;exitDy=0;entryX=0;entryY=0.5;entryDx=0;entryDy=0;" edge="1" parent="1" source="yEMM8mUvpeSLS9EE-yN1-6" target="yEMM8mUvpeSLS9EE-yN1-4">
          <mxGeometry relative="1" as="geometry" />
        </mxCell>
        <mxCell id="yEMM8mUvpeSLS9EE-yN1-6" value="&lt;font size=&quot;3&quot;&gt;自增&lt;/font&gt;" style="rounded=1;whiteSpace=wrap;html=1;" vertex="1" parent="1">
          <mxGeometry x="379" y="390" width="86" height="30" as="geometry" />
        </mxCell>
        <mxCell id="yEMM8mUvpeSLS9EE-yN1-20" style="edgeStyle=orthogonalEdgeStyle;rounded=0;orthogonalLoop=1;jettySize=auto;html=1;exitX=0.5;exitY=1;exitDx=0;exitDy=0;entryX=0.5;entryY=0;entryDx=0;entryDy=0;" edge="1" parent="1" source="yEMM8mUvpeSLS9EE-yN1-7" target="yEMM8mUvpeSLS9EE-yN1-19">
          <mxGeometry relative="1" as="geometry" />
        </mxCell>
        <mxCell id="yEMM8mUvpeSLS9EE-yN1-7" value="&lt;font size=&quot;3&quot;&gt;输出素数&lt;/font&gt;" style="rounded=1;whiteSpace=wrap;html=1;" vertex="1" parent="1">
          <mxGeometry x="374" y="450" width="96" height="30" as="geometry" />
        </mxCell>
        <mxCell id="yEMM8mUvpeSLS9EE-yN1-19" value="&lt;font size=&quot;3&quot;&gt;结束&lt;/font&gt;" style="ellipse;whiteSpace=wrap;html=1;" vertex="1" parent="1">
          <mxGeometry x="372.5" y="510" width="99" height="40" as="geometry" />
        </mxCell>
      </root>
    </mxGraphModel>
  </diagram>
</mxfile>
